<svg xmlns="http://www.w3.org/2000/svg" viewBox="0 0 160 112" aria-hidden="true">
  <g fill="#082b58">
    <path d="M16 10h61v17H43v22h28v16H43v34H24V27H16z"/>
    <path d="M77 40c24 0 40 12 40 30 0 12-7 22-18 27l29 5c-14 3-30 1-41-8L68 72h16c10 0 17-6 17-15 0-10-9-16-24-16z"/>
    <path d="M132 52h15v42c0 8 4 13 11 16-14 1-26-6-26-19zm8-22a6 6 0 1 1 0 12 6 6 0 0 1 0-12z"/>
    <path d="M14 95 127 29l4 8L18 103z"/>
  </g>
  <g fill="#51779c">
    <path d="M24 99h14V84L24 92z"/>
    <path d="M44 99h14V72L44 80z"/>
    <path d="M64 99h14V60L64 68z"/>
  </g>
</svg>
